<svg width="194" height="18" viewBox="0 0 194 18" fill="none" xmlns="http://www.w3.org/2000/svg">
<g clip-path="url(#clip0_387_6891)">
<path d="M25.7246 -0.336914H22.4738V14.4296L3.23752 -0.303406V-0.336914H0V17.8163H3.23752V3.06988L22.4738 17.8029V17.8163H22.4915L22.5049 17.8274L22.5204 17.8163H25.7246V-0.336914Z" fill="white"/>
<path d="M190.407 -0.336914V14.4296L171.146 -0.319044V-0.336914H167.895V-0.323513H167.893L167.895 -0.0867115V14.4296L148.661 -0.303406V-0.336914H145.422V17.8163H148.661V3.06988L167.895 17.8029V17.8163H167.915L167.927 17.8274L167.942 17.8163H171.146V3.01626L190.407 17.8029V17.8163H190.425L190.438 17.8274L190.454 17.8163H193.658V-0.336914H190.407Z" fill="white"/>
<path d="M50.967 13.6635C50.4982 14.3248 49.7271 14.8497 48.7827 15.1446C47.6606 15.4641 46.794 15.6339 41.8744 15.6897C36.9548 15.6339 36.0882 15.4641 34.9661 15.1446C34.0239 14.8497 33.2507 14.3248 32.784 13.6635C32.3174 12.8258 32.1174 12.0752 32.0463 8.76221C32.1174 5.44924 32.3174 4.69863 32.784 3.85866C33.2507 3.19741 34.0239 2.67466 34.9661 2.37978C36.0882 2.06032 36.9548 1.88831 41.8744 1.8347C46.794 1.88831 47.6606 2.06032 48.7827 2.37978C49.7271 2.67466 50.4982 3.19741 50.967 3.85866C51.4314 4.69863 51.6292 5.44924 51.7025 8.76221C51.6292 12.0752 51.4314 12.8258 50.967 13.6635ZM53.9357 2.93827C53.138 1.7498 51.747 0.793667 50.0426 0.273154C48.2983 -0.227253 46.9318 -0.399266 41.8744 -0.452881C36.817 -0.399266 35.4505 -0.227253 33.7062 0.273154C32.0019 0.793667 30.6131 1.7498 29.8132 2.93827C29.111 4.17812 28.8821 5.1633 28.8044 8.76221C28.8821 12.3611 29.111 13.3463 29.8132 14.5861C30.6131 15.7746 32.0019 16.7307 33.7062 17.2513C35.4505 17.7517 36.817 17.9214 41.8744 17.9773C46.9318 17.9214 48.2983 17.7517 50.0426 17.2513C51.747 16.7307 53.138 15.7746 53.9357 14.5861C54.6378 13.3463 54.8667 12.3611 54.9445 8.76221C54.8667 5.1633 54.6378 4.17812 53.9357 2.93827Z" fill="white"/>
<path d="M119.306 9.69582V8.81787C119.379 5.50491 119.577 4.7543 120.044 3.91433C120.51 3.25308 121.284 2.73033 122.226 2.43545C123.348 2.11599 124.214 1.94397 129.134 1.89036C134.054 1.94397 134.92 2.11599 136.042 2.43545C136.987 2.73033 137.758 3.25308 138.227 3.91433C138.691 4.7543 138.889 5.50491 138.962 8.81787V9.69582H119.306ZM141.195 2.99394C140.398 1.80547 139.007 0.849331 137.302 0.328818C135.558 -0.173823 134.191 -0.343602 129.134 -0.397217C124.077 -0.343602 122.71 -0.173823 120.966 0.328818C119.262 0.849331 117.873 1.80547 117.073 2.99394C116.371 4.23378 116.142 5.21896 116.064 8.81787V17.8185H119.306V11.9901H138.962V17.8185H142.204V8.81787C142.126 5.21896 141.9 4.23378 141.195 2.99394Z" fill="white"/>
<path d="M100.016 12.0125L109.709 3.29563L109.7 17.8052H112.94V-0.350196L109.682 -0.359131L100.016 8.27513L90.3505 -0.359131L87.093 -0.350196V17.8052H90.3305L90.3239 3.29563L100.016 12.0125Z" fill="white"/>
<path d="M61.3173 9.66018L61.3084 1.92398L74.6251 1.92845C79.8536 1.98429 80.6135 3.5436 80.5135 5.93841C80.5291 9.6021 77.1738 9.53732 74.6296 9.66689L61.3173 9.66018ZM76.3161 11.7869C81.9756 11.5278 83.8222 9.05255 83.7555 5.93841C83.6711 2.39534 82.4734 -0.359131 74.6251 -0.359131H58.0598V17.8253H61.2973L61.324 11.9567C61.324 11.9567 71.8231 11.9567 72.112 11.9522L79.3825 17.8275H83.7799L76.3161 11.7869Z" fill="white"/>
</g>
<defs>
<clipPath id="clip0_387_6891">
<rect width="194" height="18" fill="white"/>
</clipPath>
</defs>
</svg>
