<svg width="17" height="17" viewBox="0 0 17 17" fill="none" xmlns="http://www.w3.org/2000/svg">
<path d="M8.4375 4.6875C7.69582 4.6875 6.9708 4.90743 6.35411 5.31949C5.73743 5.73154 5.25678 6.31721 4.97295 7.00244C4.68912 7.68766 4.61486 8.44166 4.75956 9.16909C4.90425 9.89652 5.2614 10.5647 5.78585 11.0892C6.3103 11.6136 6.97848 11.9708 7.70591 12.1154C8.43334 12.2601 9.18734 12.1859 9.87256 11.902C10.5578 11.6182 11.1435 11.1376 11.5555 10.5209C11.9676 9.9042 12.1875 9.17918 12.1875 8.4375C12.1865 7.44326 11.791 6.49003 11.088 5.78699C10.385 5.08395 9.43174 4.68853 8.4375 4.6875ZM8.4375 10.3125C8.06666 10.3125 7.70415 10.2025 7.39581 9.99651C7.08746 9.79048 6.84714 9.49764 6.70523 9.15503C6.56331 8.81242 6.52618 8.43542 6.59853 8.07171C6.67087 7.70799 6.84945 7.3739 7.11167 7.11167C7.3739 6.84945 7.70799 6.67087 8.07171 6.59853C8.43542 6.52618 8.81242 6.56331 9.15503 6.70523C9.49764 6.84714 9.79048 7.08746 9.99651 7.39581C10.2025 7.70415 10.3125 8.06666 10.3125 8.4375C10.3125 8.93478 10.115 9.41169 9.76333 9.76333C9.41169 10.115 8.93478 10.3125 8.4375 10.3125ZM12.1875 0H4.6875C3.44474 0.00144735 2.2533 0.495772 1.37454 1.37454C0.495772 2.2533 0.00144735 3.44474 0 4.6875V12.1875C0.00144735 13.4303 0.495772 14.6217 1.37454 15.5005C2.2533 16.3792 3.44474 16.8736 4.6875 16.875H12.1875C13.4303 16.8736 14.6217 16.3792 15.5005 15.5005C16.3792 14.6217 16.8736 13.4303 16.875 12.1875V4.6875C16.8736 3.44474 16.3792 2.2533 15.5005 1.37454C14.6217 0.495772 13.4303 0.00144735 12.1875 0ZM15 12.1875C15 12.9334 14.7037 13.6488 14.1762 14.1762C13.6488 14.7037 12.9334 15 12.1875 15H4.6875C3.94158 15 3.22621 14.7037 2.69876 14.1762C2.17132 13.6488 1.875 12.9334 1.875 12.1875V4.6875C1.875 3.94158 2.17132 3.22621 2.69876 2.69876C3.22621 2.17132 3.94158 1.875 4.6875 1.875H12.1875C12.9334 1.875 13.6488 2.17132 14.1762 2.69876C14.7037 3.22621 15 3.94158 15 4.6875V12.1875ZM13.75 4.375C13.75 4.62223 13.6767 4.8639 13.5393 5.06946C13.402 5.27502 13.2068 5.43524 12.9784 5.52985C12.7499 5.62446 12.4986 5.64921 12.2561 5.60098C12.0137 5.55275 11.7909 5.4337 11.6161 5.25888C11.4413 5.08407 11.3222 4.86134 11.274 4.61886C11.2258 4.37639 11.2505 4.12505 11.3452 3.89665C11.4398 3.66824 11.6 3.47301 11.8055 3.33566C12.0111 3.19831 12.2528 3.125 12.5 3.125C12.8315 3.125 13.1495 3.2567 13.3839 3.49112C13.6183 3.72554 13.75 4.04348 13.75 4.375Z" fill="black"/>
</svg>
