<svg width="17" height="17" viewBox="0 0 17 17" fill="none" xmlns="http://www.w3.org/2000/svg">
<path fill-rule="evenodd" clip-rule="evenodd" d="M6.19083 5.8075H9.28583V7.34917C9.73167 6.4625 10.875 5.66583 12.5925 5.66583C15.885 5.66583 16.6667 7.43083 16.6667 10.6692V16.6667H13.3333V11.4067C13.3333 9.5625 12.8875 8.5225 11.7525 8.5225C10.1783 8.5225 9.52417 9.64333 9.52417 11.4058V16.6667H6.19083V5.8075ZM0.475 16.525H3.80833V5.66583H0.475V16.525ZM4.28583 2.125C4.28596 2.4044 4.23055 2.68103 4.12282 2.93882C4.0151 3.19662 3.85721 3.43043 3.65833 3.62667C3.25533 4.02719 2.70984 4.25138 2.14167 4.25C1.57449 4.24962 1.03026 4.026 0.626667 3.6275C0.42851 3.43059 0.271155 3.19652 0.16362 2.93869C0.0560846 2.68087 0.00048261 2.40435 0 2.125C0 1.56083 0.225 1.02083 0.6275 0.6225C1.03074 0.223465 1.5752 -0.000249342 2.1425 2.08554e-07C2.71083 2.08554e-07 3.25583 0.224167 3.65833 0.6225C4.06 1.02083 4.28583 1.56083 4.28583 2.125Z" fill="black"/>
</svg>
