<svg width="17" height="13" viewBox="0 0 17 13" fill="none" xmlns="http://www.w3.org/2000/svg">
<path fill-rule="evenodd" clip-rule="evenodd" d="M4.25258 0.163095C7.03222 -0.0543649 9.82461 -0.0543649 12.6042 0.163095L14.4709 0.309762C14.9765 0.349175 15.4543 0.556682 15.8283 0.89921C16.2022 1.24174 16.4507 1.69958 16.5342 2.19976C16.9651 4.77476 16.9651 7.40226 16.5342 9.97643C16.4508 10.4765 16.2024 10.9342 15.8286 11.2767C15.4548 11.6192 14.9772 11.8268 14.4717 11.8664L12.6051 12.0123C9.82516 12.2298 7.0325 12.2298 4.25258 12.0123L2.38592 11.8664C1.88034 11.827 1.40251 11.6195 1.02857 11.277C0.654624 10.9345 0.406094 10.4766 0.322582 9.97643C-0.107527 7.40205 -0.107527 4.77414 0.322582 2.19976C0.406057 1.69971 0.654466 1.24197 1.02824 0.899452C1.40201 0.556939 1.87966 0.349354 2.38508 0.309762L4.25175 0.163928L4.25258 0.163095ZM6.76175 8.14643V4.02976C6.76182 3.98558 6.77359 3.94221 6.79587 3.90406C6.81815 3.86591 6.85015 3.83435 6.88859 3.81258C6.92704 3.79082 6.97057 3.77963 7.01474 3.78016C7.05892 3.78069 7.10217 3.79292 7.14008 3.81559L10.5709 5.87393C10.6078 5.89616 10.6384 5.92757 10.6596 5.96509C10.6808 6.00262 10.6919 6.04499 10.6919 6.08809C10.6919 6.1312 10.6808 6.17357 10.6596 6.21109C10.6384 6.24862 10.6078 6.28003 10.5709 6.30226L7.14008 8.36059C7.10217 8.38327 7.05892 8.3955 7.01474 8.39603C6.97057 8.39656 6.92704 8.38537 6.88859 8.36361C6.85015 8.34184 6.81815 8.31028 6.79587 8.27213C6.77359 8.23398 6.76182 8.19061 6.76175 8.14643Z" fill="black"/>
</svg>
